# xmcd
#
# Track frame offsets: 
#        150
#        12167
#        26680
#        40937
#        52392
#        64802
#        74247
#        86167
#        95317
#        110232
#        120557
#        133202
#        144990
#        159390
#        171880
#
# Disc length: 2475 seconds
#
# Revision: 4
# Processed by: cddbd v1.5.2PL0 Copyright (c) Steve Scherf et al.
# Submitted via: ExactAudioCopy v1.1
#
DISCID=e009a90f
DTITLE=Ernest Tubb - Collection With Guests Part 1
DYEAR=1989
DGENRE=Country
TTITLE0=Ernest Tubb and Willie Nelson - Waltz Across Texas
TTITLE1=Ernest Tubb, Vern Gosdin and Waylon Jennings - When The World Ha
TTITLE1=s Turned You Down
TTITLE2=Ernest Tubb and Johnny Paycheck - Let's Say Goodbye Like We Said
TTITLE2=Hello
TTITLE3=Ernest Tubb and Loretta Lynn - Answer The Phone
TTITLE4=Ernest Tubb and Marty Robbins - Journey's End
TTITLE5=Ernest Tubb, Merle Haggard, Charlie Daniels - Walkin' The Floo
TTITLE5=r Over You
TTITLE6=Ernest Tubb and George Jones - Half A Mind
TTITLE7=Ernest Tubb and Johnny Cash - Jealous Loving Heart
TTITLE8=Ernest Tubb and Marty Robbins - Rainbow At Midnight
TTITLE9=Ernest Tubb, Frelin Husky and Simon Crum - Set Up Two Glasses, J
TTITLE9=oe
TTITLE10=Ernest Tubb, Willie Nelson and Waylon Jennings - You Nearly Los
TTITLE10=e Your Mind
TTITLE11=Ernest Tubb and Charlie Rich - You're The Only Good Thing
TTITLE12=Ernest Tubb and George Jones - Filipino Baby
TTITLE13=Ernest Tubb and Conway Twitty - Jimmy Rodgers Last Blue Yodel (
TTITLE13=Women Make A Fool Out Of Me)
TTITLE14=Ernest Tubb and Merle Haggard - Seaman's Blues
EXTD=
EXTT0=wWillie Nelson
EXTT1=wVern Gosdin and Waylon Jennings
EXTT2=wJohnny Paycheck
EXTT3=wLoretta Lynn
EXTT4=wMarty Robbins and Wilburn Bros
EXTT5=wMerle Haggard
EXTT6=wGoerge Jones
EXTT7=wJohnny Cash
EXTT8=wMarty Robbins
EXTT9=wFerlin Husky and Simon Crum
EXTT10=wWillie Nelson and Waylon Jennings
EXTT11=wCharlie Rich
EXTT12=wGeorge Jones
EXTT13=wConway Twitty
EXTT14=wMerle Haggard
PLAYORDER=
